<svg id="Layer_1" data-name="Layer 1" xmlns="http://www.w3.org/2000/svg" viewBox="0 0 74 56"><defs><style>.cls-1{opacity:0.4;}.cls-2{fill:#fff;}</style></defs><title>Artboard 1</title><rect class="cls-1" x="3" y="3" width="68" height="49"/><path id="Fill-v2" class="cls-2" d="M1,1V55H73V5.5A4.51,4.51,0,0,0,68.5,1ZM27.8,39V17h8.38c8.08,0,12.35,4.39,12.35,11s-4.3,11-12.14,11ZM66.25,22.39h-8V25.9h5.78L65,31.23H58.29V39H51.81V17H66.25Zm-52,10V39H7.75V17h7.87c5.87,0,9.47,2.45,9.47,7.51s-3.84,7.86-9.62,7.86Zm20-10.47V34.07H36c3.72,0,6-1.73,6-6.06s-2.48-6.08-6.05-6.08Zm-20.1-.15v5.87h1c2.36,0,3.69-.93,3.69-3,0-1.91-1.24-2.85-3.63-2.85Z"/></svg>